<svg width="60" height="60" viewBox="0 0 60 60" version="1.1" xmlns="http://www.w3.org/2000/svg" xmlns:xlink="http://www.w3.org/1999/xlink">
<title>Mail</title>
<desc>Created using Figma</desc>
<g id="Canvas" transform="translate(1293 -1979)">
<g id="Mail">
<use xlink:href="#path0_fill" transform="translate(-1293 1979)" fill="#FFFFFF"/>
</g>
</g>
<defs>
<path id="path0_fill" fill-rule="evenodd" d="M 0 29.9995C 0 13.4314 13.4318 0 29.9999 0C 46.5686 0 60 13.4314 60 29.9995C 60 46.5693 46.5686 60 29.9999 60C 13.4318 60 0 46.5693 0 29.9995ZM 44 38.5L 44 26.0938C 43.5361 26.5938 42.9967 27.0469 42.3817 27.4531C 38.843 29.7656 36.1566 31.5625 34.3225 32.8438C 33.7076 33.2812 33.2086 33.6224 32.8256 33.8672C 32.4426 34.1119 31.9329 34.3619 31.2963 34.6172C 30.6598 34.8724 30.0664 35 29.5162 35L 29.5 35L 29.4838 35C 28.9336 35 28.3402 34.8724 27.7037 34.6172C 27.0671 34.3619 26.5574 34.1119 26.1744 33.8672C 25.7914 33.6224 25.2924 33.2812 24.6775 32.8438C 23.2209 31.8125 20.54 30.0156 16.6345 27.4531C 16.0195 27.0573 15.4747 26.6041 15 26.0938L 15 38.5C 15 39.1875 15.2535 39.776 15.7606 40.2656C 16.2677 40.7552 16.8772 41 17.5892 41L 41.4108 41C 42.1228 41 42.7323 40.7552 43.2394 40.2656C 43.7465 39.776 44 39.1875 44 38.5ZM 43.207 23.8594C 43.7357 23.1094 44 22.3229 44 21.5C 44 20.8125 43.7438 20.224 43.2313 19.7344C 42.7189 19.2448 42.1119 19 41.4108 19L 17.5892 19C 16.7585 19 16.1194 19.2709 15.6716 19.8125C 15.2239 20.3541 15 21.0312 15 21.8438C 15 22.5 15.2966 23.2109 15.89 23.9766C 16.4834 24.7422 17.1146 25.3438 17.7834 25.7812C 18.1503 26.0312 19.2561 26.7734 21.101 28.0078C 22.9459 29.2422 24.3591 30.1927 25.3409 30.8594C 25.4489 30.9323 25.6781 31.0912 26.0287 31.3359C 26.3794 31.5807 26.6707 31.7787 26.9026 31.9297C 27.1345 32.0807 27.415 32.25 27.7441 32.4375C 28.0732 32.625 28.3834 32.7656 28.6747 32.8594C 28.9659 32.9531 29.2357 33 29.4838 33L 29.5 33L 29.5162 33C 29.7643 33 30.0341 32.9531 30.3253 32.8594C 30.6166 32.7656 30.9268 32.625 31.2559 32.4375C 31.585 32.25 31.8655 32.0807 32.0974 31.9297C 32.3293 31.7787 32.6206 31.5807 32.9713 31.3359C 33.3219 31.0912 33.5511 30.9323 33.6591 30.8594C 34.6516 30.1927 37.1761 28.5 41.2327 25.7812C 42.0203 25.25 42.6783 24.6094 43.207 23.8594Z"/>
</defs>
</svg>
