<svg width="14" height="14" viewBox="0 0 14 14" version="1.1" xmlns="http://www.w3.org/2000/svg" xmlns:xlink="http://www.w3.org/1999/xlink">
<title>Union</title>
<desc>Created using Figma</desc>
<g id="Canvas" transform="translate(2928 -3806)">
<g id="Union">
<use xlink:href="#path0_fill" transform="translate(-2928 3806.29)" fill="#FFFFFF"/>
</g>
</g>
<defs>
<path id="path0_fill" fill-rule="evenodd" d="M 12.6465 13.3535C 12.8416 13.5488 13.1582 13.5488 13.3535 13.3535C 13.5488 13.1582 13.5488 12.8418 13.3535 12.6465L 7.56055 6.85352L 13.3535 1.06055C 13.5488 0.865479 13.5488 0.548828 13.3535 0.353516C 13.1582 0.158203 12.8418 0.158203 12.6465 0.353516L 6.85352 6.14648L 1.06055 0.353516C 0.865234 0.158203 0.548828 0.158203 0.353516 0.353516C 0.158203 0.548828 0.158203 0.865479 0.353516 1.06055L 6.14648 6.85352L 0.353516 12.6465C 0.158203 12.8418 0.158203 13.1582 0.353516 13.3535C 0.548828 13.5488 0.865479 13.5488 1.06055 13.3535L 6.85352 7.56055L 12.6465 13.3535Z"/>
</defs>
</svg>
