<svg width="61" height="60" viewBox="0 0 61 60" version="1.1" xmlns="http://www.w3.org/2000/svg" xmlns:xlink="http://www.w3.org/1999/xlink">
<title>Youtube</title>
<desc>Created using Figma</desc>
<g id="Canvas" transform="translate(1293 -1720)">
<g id="Youtube">
<g id="Combined Shape">
<use xlink:href="#path0_fill" transform="translate(-1293 1720)" fill="#FFFFFF"/>
</g>
<g id="Path">
<use xlink:href="#path1_fill" transform="translate(-1266.31 1745.55)" fill="#FFFFFF"/>
</g>
</g>
</g>
<defs>
<path id="path0_fill" fill-rule="evenodd" d="M 30.0433 0C 13.4509 0 0 13.4314 0 30C 0 46.5686 13.4509 60 30.0433 60C 46.6359 60 60.0867 46.5686 60.0867 30C 60.0867 13.4314 46.6359 0 30.0433 0ZM 44.408 20.7158C 45.3669 21.708 45.6801 23.9613 45.6801 23.9613C 45.6801 23.9613 46 26.608 46 29.2538L 46 31.735C 46 34.3817 45.6801 37.0275 45.6801 37.0275C 45.6801 37.0275 45.3669 39.2808 44.408 40.2729C 43.3116 41.4468 42.0959 41.5681 41.4088 41.6366C 41.3331 41.6442 41.2639 41.6511 41.202 41.6587C 36.724 41.9897 30 42 30 42C 30 42 21.6801 41.9224 19.12 41.6709C 18.9988 41.6477 18.8517 41.6298 18.6853 41.6094C 17.8744 41.51 16.6016 41.354 15.5909 40.2729C 14.632 39.2808 14.3199 37.0275 14.3199 37.0275C 14.3199 37.0275 14 34.3817 14 31.735L 14 29.2538C 14 26.608 14.3199 23.9613 14.3199 23.9613C 14.3199 23.9613 14.632 21.708 15.5909 20.7158C 16.6897 19.5404 17.9065 19.4204 18.5938 19.3525C 18.6683 19.3452 18.7367 19.3385 18.798 19.3311C 23.276 19 29.993 19 29.993 19L 30.007 19C 30.007 19 36.724 19 41.202 19.3311C 41.2633 19.3385 41.3317 19.3452 41.4064 19.3525C 42.093 19.4204 43.3103 19.5405 44.408 20.7158Z"/>
<path id="path1_fill" fill-rule="evenodd" d="M 0.001 9.18794L 0 0L 8.646 4.60981L 0.001 9.18794Z"/>
</defs>
</svg>
