<svg width="48" height="44" viewBox="0 0 48 44" version="1.1" xmlns="http://www.w3.org/2000/svg" xmlns:xlink="http://www.w3.org/1999/xlink">
<title>&#226;&#128;&#156;</title>
<desc>Created using Figma</desc>
<g id="Canvas" transform="matrix(2 0 0 2 -6240 -9282)">
<g id="&#226;&#128;&#156;">
<use xlink:href="#path0_fill" transform="translate(3120 4641)" fill="#F15025"/>
</g>
</g>
<defs>
<path id="path0_fill" d="M 9.29455 3.9536C 7.28727 4.31812 5.87636 5.7201 5.06182 8.15956C 4.65455 9.36527 4.45091 10.557 4.45091 11.7346C 4.45091 11.8748 4.45091 12.001 4.45091 12.1132C 4.48 12.1973 4.50909 12.4076 4.53818 12.7441L 9.29455 12.7441L 9.29455 21.913L 0 21.913L 0 13.4591C 0 9.30919 0.858182 6.11266 2.57455 3.86948C 4.29091 1.6263 6.53091 0.336477 9.29455 0L 9.29455 3.9536ZM 24 3.9536C 22.4 4.20596 21.1782 5.07519 20.3345 6.56129C 19.52 8.0474 19.1127 9.75782 19.1127 11.6926C 19.1127 11.8608 19.1127 12.029 19.1127 12.1973C 19.1418 12.3655 19.1855 12.5478 19.2436 12.7441L 24 12.7441L 24 21.913L 14.6618 21.913L 14.6618 13.4591C 14.6618 10.1223 15.3891 7.15013 16.8436 4.54243C 18.2982 1.9067 20.6836 0.392556 24 0L 24 3.9536Z"/>
</defs>
</svg>
