<svg width="15" height="14" viewBox="0 0 15 14" version="1.1" xmlns="http://www.w3.org/2000/svg" xmlns:xlink="http://www.w3.org/1999/xlink">
<title>Union</title>
<desc>Created using Figma</desc>
<g id="Canvas" transform="translate(11206 2845)">
<g id="Union">
<use xlink:href="#path0_fill" transform="translate(-11205.2 -2844.72)"/>
</g>
</g>
<defs>
<path id="path0_fill" fill-rule="evenodd" d="M 13.0811 0.353516C 12.8857 0.158203 12.5693 0.158203 12.374 0.353516L 6.7168 6.0105L 1.06055 0.35376C 0.865234 0.158447 0.548828 0.158447 0.353516 0.35376C 0.158203 0.548828 0.158203 0.865479 0.353516 1.06079L 6.00977 6.71753L 0.353516 12.3743C 0.158203 12.5696 0.158203 12.8862 0.353516 13.0815C 0.548828 13.2769 0.865234 13.2769 1.06055 13.0815L 6.7168 7.42456L 12.374 13.0815C 12.5693 13.2769 12.8857 13.2769 13.0811 13.0815C 13.2764 12.8862 13.2764 12.5698 13.0811 12.3745L 7.42383 6.71753L 13.0811 1.06055C 13.2764 0.865479 13.2764 0.548828 13.0811 0.353516Z"/>
</defs>
</svg>
