<svg width="18" height="14" viewBox="0 0 18 14" version="1.1" xmlns="http://www.w3.org/2000/svg" xmlns:xlink="http://www.w3.org/1999/xlink">
<title>Cart</title>
<desc>Created using Figma</desc>
<g id="Canvas" transform="translate(2183 241)">
<g id="Cart">
<use xlink:href="#path0_fill" transform="translate(-2183 -241)" fill="#FFFFFF"/>
</g>
</g>
<defs>
<path id="path0_fill" fill-rule="evenodd" d="M 15.8943 1.86667L 15.0984 3.93654C 15.0879 3.96393 15.0759 3.99048 15.063 4.01614L 13.2 9.584C 13.0635 9.99178 12.6816 10.2667 12.2517 10.2667L 3.85327 10.2667C 3.42334 10.2667 3.0415 9.99178 2.90503 9.584L 0.947266 3.73334L 0.600098 3.73334C 0.268555 3.73334 0 3.46471 0 3.13333L 0 2.46667C 0 2.1353 0.268555 1.86667 0.600098 1.86667L 14.073 1.86667L 14.572 0.568527C 14.6255 0.429626 14.7114 0.312469 14.8181 0.222397C 14.9282 0.0867157 15.0959 0 15.2844 0L 17.4001 0C 17.7314 0 18 0.268631 18 0.600006L 18 1.26666C 18 1.59804 17.7314 1.86667 17.4001 1.86667L 15.8943 1.86667ZM 12.5881 3.73334L 3.51685 3.73334C 3.18115 3.73334 2.94092 4.05775 3.03857 4.37898L 4.04736 7.69131C 4.17554 8.1123 4.56372 8.40001 5.00391 8.40001L 11.1013 8.40001C 11.5413 8.40001 11.9297 8.1123 12.0579 7.69131L 13.0664 4.37898C 13.1643 4.05775 12.9241 3.73334 12.5881 3.73334ZM 2.84204 12.6C 2.84204 11.8268 3.46875 11.2 4.24194 11.2L 4.28418 11.2C 5.05737 11.2 5.68408 11.8268 5.68408 12.6C 5.68408 13.3732 5.05737 14 4.28418 14L 4.24194 14C 3.46875 14 2.84204 13.3732 2.84204 12.6ZM 10.4211 12.6C 10.4211 11.8268 11.0479 11.2 11.821 11.2L 11.8633 11.2C 12.6365 11.2 13.2632 11.8268 13.2632 12.6C 13.2632 13.3732 12.6365 14 11.8633 14L 11.821 14C 11.0479 14 10.4211 13.3732 10.4211 12.6Z"/>
</defs>
</svg>
