<svg width="60" height="60" viewBox="0 0 60 60" version="1.1" xmlns="http://www.w3.org/2000/svg" xmlns:xlink="http://www.w3.org/1999/xlink">
<title>Facebook</title>
<desc>Created using Figma</desc>
<g id="Canvas" transform="translate(1392 -1559)">
<g id="Facebook">
<g id="Combined Shape">
<use xlink:href="#path0_fill" transform="translate(-1392 1559)" fill="#FFFFFF"/>
</g>
</g>
</g>
<defs>
<path id="path0_fill" fill-rule="evenodd" d="M 30 0C 13.4314 0 0 13.4314 0 30C 0 46.5686 13.4314 60 30 60C 46.5686 60 60 46.5686 60 30C 60 13.4314 46.5686 0 30 0ZM 32.127 30.3177L 32.127 46.6394L 25.3739 46.6394L 25.3739 30.3184L 22 30.3184L 22 24.6938L 25.3739 24.6938L 25.3739 21.317C 25.3739 16.7285 27.2789 14 32.6915 14L 37.1976 14L 37.1976 19.6251L 34.381 19.6251C 32.2739 19.6251 32.1346 20.4111 32.1346 21.8782L 32.127 24.6932L 37.2295 24.6932L 36.6324 30.3177L 32.127 30.3177Z"/>
</defs>
</svg>
