<svg width="92" height="80" viewBox="0 0 92 80" version="1.1" xmlns="http://www.w3.org/2000/svg" xmlns:xlink="http://www.w3.org/1999/xlink">
<title>login</title>
<desc>Created using Figma</desc>
<g id="Canvas" transform="matrix(2 0 0 2 -4666 -5292)">
<g id="login">
<g id="Rectangle 18">
<use xlink:href="#path0_stroke" transform="translate(2349 2648)" fill="#FFFFFF"/>
</g>
<g id="Line 16">
<use xlink:href="#path1_stroke" transform="translate(2335 2660)" fill="#FFFFFF"/>
</g>
</g>
</g>
<defs>
<path id="path0_stroke" d="M -2 8C -2 9.10457 -1.10457 10 0 10C 1.10457 10 2 9.10457 2 8L -2 8ZM 2 28C 2 26.8954 1.10457 26 0 26C -1.10457 26 -2 26.8954 -2 28L 2 28ZM 4 2L 24 2L 24 -2L 4 -2L 4 2ZM 26 4L 26 32L 30 32L 30 4L 26 4ZM 24 34L 4 34L 4 38L 24 38L 24 34ZM 2 8L 2 4L -2 4L -2 8L 2 8ZM 2 32L 2 28L -2 28L -2 32L 2 32ZM 4 -2C 0.686292 -2 -2 0.686292 -2 4L 2 4C 2 2.89543 2.89543 2 4 2L 4 -2ZM 24 2C 25.1046 2 26 2.89543 26 4L 30 4C 30 0.686291 27.3137 -2 24 -2L 24 2ZM 26 32C 26 33.1046 25.1046 34 24 34L 24 38C 27.3137 38 30 35.3137 30 32L 26 32ZM 4 34C 2.89543 34 2 33.1046 2 32L -2 32C -2 35.3137 0.686292 38 4 38L 4 34Z"/>
<path id="path1_stroke" d="M 0 4C -1.10457 4 -2 4.89543 -2 6C -2 7.10457 -1.10457 8 0 8L 0 4ZM 28 6L 29.4142 7.41421L 30.8284 6L 29.4142 4.58579L 28 6ZM 23.4142 -1.41421C 22.6332 -2.19526 21.3668 -2.19526 20.5858 -1.41421C 19.8047 -0.633165 19.8047 0.633165 20.5858 1.41421L 23.4142 -1.41421ZM 20.5858 10.5858C 19.8047 11.3668 19.8047 12.6332 20.5858 13.4142C 21.3668 14.1953 22.6332 14.1953 23.4142 13.4142L 20.5858 10.5858ZM 0 8L 28 8L 28 4L 0 4L 0 8ZM 29.4142 4.58579L 23.4142 -1.41421L 20.5858 1.41421L 26.5858 7.41421L 29.4142 4.58579ZM 26.5858 4.58579L 20.5858 10.5858L 23.4142 13.4142L 29.4142 7.41421L 26.5858 4.58579Z"/>
</defs>
</svg>
