<svg width="60" height="60" viewBox="0 0 60 60" version="1.1" xmlns="http://www.w3.org/2000/svg" xmlns:xlink="http://www.w3.org/1999/xlink">
<title>Reddit</title>
<desc>Created using Figma</desc>
<g id="Canvas" transform="translate(1392 -1979)">
<g id="Reddit">
<g id="Combined Shape">
<use xlink:href="#path0_fill" transform="translate(-1392 1979)" fill="#FFFFFF"/>
</g>
</g>
</g>
<defs>
<path id="path0_fill" fill-rule="evenodd" d="M 30 0C 13.4314 0 0 13.4314 0 30C 0 46.5686 13.4314 60 30 60C 46.5686 60 60 46.5686 60 30C 60 13.4314 46.5686 0 30 0ZM 38.624 32.0479C 38.624 31.7473 38.5724 31.4447 38.4589 31.1519L 38.4615 31.1519L 38.4607 31.1508C 38.4592 31.1486 38.4578 31.1465 38.4578 31.1432C 38.4568 31.1415 38.4564 31.1398 38.4559 31.1381C 38.4554 31.1364 38.455 31.1345 38.454 31.1326C 38.2621 30.5564 37.8792 30.0924 37.4075 29.7759C 36.9301 29.4542 36.3638 29.2783 35.7891 29.2783C 35.4734 29.2783 35.1544 29.3347 34.8523 29.4475C 34.8511 29.4475 34.8505 29.4481 34.8499 29.4487C 34.8492 29.4495 34.8485 29.4502 34.847 29.4502C 34.847 29.4502 34.8451 29.4513 34.8431 29.4513C 34.309 29.6393 33.8525 30.0044 33.5288 30.464C 33.2041 30.9265 33.0074 31.4863 33.0074 32.0692C 33.0074 32.2407 33.0265 32.4141 33.0638 32.5875L 33.0619 32.5875C 33.0638 32.5903 33.0638 32.5923 33.0638 32.5942C 33.0647 32.597 33.0647 32.5995 33.0647 32.6014L 33.0657 32.6014C 33.1841 33.2745 33.5614 33.842 34.0598 34.2371C 34.562 34.6335 35.1903 34.8662 35.8301 34.8662C 36.103 34.8662 36.3782 34.8229 36.6465 34.7305L 36.65 34.7295C 36.6516 34.729 36.6533 34.7284 36.6545 34.7284C 36.6558 34.7274 36.6578 34.7269 36.6603 34.7264L 36.6655 34.7246C 37.2385 34.5626 37.7255 34.1947 38.0692 33.7206C 38.4169 33.2407 38.624 32.653 38.624 32.0479ZM 35.9381 38.0675C 36.214 38.0675 36.4747 38.1566 36.7 38.304C 36.9225 38.4514 37.1124 38.6576 37.2284 38.9093C 37.3076 39.0764 37.3553 39.2625 37.3553 39.4584C 37.3553 39.5615 37.3425 39.6647 37.3153 39.7706L 37.3153 39.7716C 37.2504 40.0115 37.1353 40.2139 36.9921 40.3781C 36.8488 40.5433 36.6818 40.6705 36.5109 40.7803C 36.3186 40.9 36.1199 40.9989 35.9338 41.0914C 35.7853 41.1653 35.645 41.2351 35.5225 41.3083L 35.512 41.3141L 35.501 41.3208C 33.4084 42.3142 31.058 42.86 28.7218 42.86C 26.1305 42.8624 23.5493 42.1865 21.3571 40.6945C 21.1337 40.573 20.963 40.3918 20.8519 40.1847C 20.7354 39.9659 20.679 39.7252 20.679 39.4843C 20.679 39.2174 20.7479 38.9495 20.8883 38.7192C 21.0227 38.4957 21.2318 38.3069 21.4985 38.2037L 21.5243 38.1936C 21.6946 38.1156 21.8672 38.0785 22.0314 38.0785C 22.2297 38.0785 22.4153 38.1287 22.5823 38.2004C 22.7516 38.2703 22.9042 38.3652 23.0503 38.4607C 23.118 38.5062 23.1844 38.5522 23.2494 38.5974C 23.4601 38.7435 23.6558 38.8792 23.8325 38.952L 23.8402 38.955L 23.848 38.9587C 25.3818 39.719 27.0747 40.0817 28.778 40.0817C 31.0482 40.0817 33.3347 39.4401 35.2787 38.2693C 35.4845 38.1316 35.7156 38.0675 35.9381 38.0675ZM 21.3219 34.7197C 21.3176 34.7173 21.3126 34.7158 21.3088 34.7158L 21.308 34.7155C 21.3044 34.7139 21.3025 34.713 21.2987 34.7128C 20.7306 34.5399 20.2574 34.1699 19.923 33.6992C 19.5856 33.2205 19.3899 32.6383 19.3899 32.041C 19.3899 31.7683 19.4309 31.4929 19.519 31.226C 19.519 31.226 19.5199 31.2241 19.5199 31.222L 19.5199 31.2211C 19.8265 30.2461 20.6573 29.5374 21.6038 29.3374L 21.6066 29.3374L 21.6106 29.3369L 21.6145 29.3365C 21.8047 29.2917 21.9993 29.269 22.1902 29.269C 22.9052 29.269 23.5958 29.5648 24.116 30.0486C 24.6343 30.5319 24.9878 31.2155 24.9878 31.9852C 24.9878 32.0243 24.9868 32.0624 24.9849 32.097C 24.9858 32.1211 24.9858 32.1414 24.9858 32.1615C 24.9858 32.9376 24.6274 33.6184 24.1042 34.0996C 23.5802 34.5793 22.8879 34.8738 22.1757 34.8738C 21.8901 34.8738 21.6017 34.8228 21.3219 34.7197ZM 50.9915 27.7526L 50.9915 27.7487L 50.9927 27.7488L 50.9927 27.7462C 50.8904 26.5165 50.3668 25.3837 49.5881 24.4883C 48.8088 23.5944 47.7739 22.9315 46.6299 22.6378L 46.6299 22.6368C 46.6265 22.6368 46.6233 22.636 46.6198 22.6351L 46.6117 22.6334L 46.5917 22.6274L 46.5897 22.6274C 46.1057 22.5023 45.6067 22.4381 45.1084 22.4381C 43.9849 22.4381 42.8619 22.7549 41.9143 23.3917C 41.655 23.5476 41.4279 23.7285 41.2129 23.9044C 41.1136 23.851 41.0039 23.7902 40.9446 23.7548L 40.8998 23.728L 40.895 23.728C 37.7688 21.9147 34.2043 21.0568 30.6608 20.8235C 30.6799 19.3822 30.8059 17.9302 31.4381 16.6879L 31.4381 16.6851L 31.4381 16.6841C 31.8544 15.8386 32.7139 15.2507 33.6381 15.1608L 33.64 15.1608C 33.8186 15.1426 33.9972 15.1326 34.1758 15.1326C 35.4103 15.1316 36.6525 15.5676 37.8223 16.0933C 37.8215 16.1184 37.8202 16.1438 37.8188 16.1693C 37.8168 16.2074 37.8147 16.2457 37.8147 16.2834C 37.8147 17.5869 38.3666 18.7944 39.2231 19.6981C 40.0768 20.6034 41.2388 21.2118 42.485 21.308C 42.6875 21.3352 42.8909 21.3466 43.0924 21.3466C 44.3489 21.3466 45.5731 20.8447 46.5183 20.014C 47.4579 19.1865 48.1216 18.0265 48.2303 16.7043C 48.2314 16.7014 48.2314 16.6973 48.2314 16.6945L 48.2334 16.6906C 48.2552 16.5015 48.2657 16.3126 48.2657 16.124C 48.2657 15.101 47.9382 14.1058 47.3815 13.275C 46.8253 12.448 46.0409 11.7823 45.1141 11.4222C 45.1122 11.4222 45.1101 11.4211 45.1077 11.42L 45.1023 11.4176C 45.1023 11.4176 45.1013 11.4176 45.1003 11.4153L 45.1003 11.4176C 44.454 11.1262 43.7639 11 43.0793 11C 42.4305 11 41.7839 11.1125 41.1719 11.3049L 41.1619 11.3087L 41.1519 11.3146C 40.109 11.7296 39.2201 12.4696 38.5975 13.4177C 37.191 12.8505 35.688 12.4869 34.167 12.4869C 33.5959 12.4869 33.0211 12.5382 32.451 12.6495L 32.443 12.6505L 32.4366 12.6536C 30.9399 13.0231 29.6829 14.0895 28.9586 15.4591C 28.089 17.1077 27.8698 18.9913 27.8385 20.7906C 24.2389 21.002 20.5453 21.7345 17.3674 23.6333C 17.1766 23.7067 17.0049 23.798 16.8464 23.882L 16.8044 23.9043C 16.2802 23.4839 15.6919 23.1804 15.1 22.929L 15.0961 22.9276L 15.0923 22.9248C 14.3988 22.6565 13.6686 22.5375 12.9401 22.5375C 12.7865 22.5375 12.6331 22.5435 12.481 22.5538L 12.4208 22.5538C 10.9703 22.5538 9.61804 23.2292 8.62805 24.2627C 7.63806 25.2964 7.00098 26.6982 7 28.1782L 7 28.1866L 7 28.1904L 7 28.1946C 7.04541 29.2513 7.40491 30.251 7.9718 31.1042C 8.50293 31.8988 9.21814 32.5641 10.0438 33.0332C 9.98657 33.4614 9.95764 33.8947 9.95764 34.3273C 9.95764 36.2388 10.4991 38.1412 11.4855 39.7629C 13.3188 42.8024 16.3085 44.8768 19.4462 46.1819L 19.4491 46.1819L 19.45 46.1848C 22.4764 47.4093 25.7197 48 28.9656 48C 31.1429 48 33.3209 47.7356 35.4331 47.2181L 35.4359 47.2158L 35.4369 47.2158C 39.3977 46.1959 43.3202 44.174 45.8745 40.7452L 45.8773 40.7452L 45.8773 40.7443C 47.2589 38.9149 48.0524 36.6324 48.0535 34.3104C 48.0535 33.8793 48.0219 33.4467 47.9675 33.0173C 48.8154 32.55 49.5515 31.8612 50.0853 31.0378C 50.6572 30.1581 51 29.1211 51 28.0427C 51 27.9464 50.9982 27.8496 50.9915 27.7526ZM 40.5597 16.1957C 40.5548 16.145 40.5538 16.0953 40.5538 16.047C 40.5538 15.5077 40.7629 14.9893 41.1078 14.5699C 41.451 14.1487 41.9291 13.8314 42.4388 13.6978L 42.4446 13.6954L 42.4513 13.6949C 42.645 13.6342 42.8428 13.6067 43.0424 13.6067C 43.6609 13.6051 44.2883 13.8868 44.7543 14.3417C 45.2222 14.7969 45.5211 15.4116 45.5211 16.0565C 45.5211 16.1055 45.5192 16.1508 45.5153 16.1986L 45.5153 16.2024L 45.5144 16.2053C 45.4905 16.8318 45.1935 17.4136 44.7428 17.8413C 44.2931 18.267 43.6943 18.5293 43.0909 18.5283C 43.049 18.5283 43.005 18.5283 42.962 18.5249L 42.954 18.5249L 42.9458 18.5249C 42.3481 18.5226 41.7589 18.2581 41.3149 17.8307C 40.8732 17.4037 40.5826 16.8256 40.5597 16.2043L 40.5597 16.1985L 40.5597 16.1957ZM 12.9497 25.2515C 13.4338 25.2494 13.9236 25.4083 14.3972 25.6309C 12.9478 26.8972 11.6785 28.4205 10.8661 30.2153C 10.6123 29.9821 10.3879 29.7144 10.2168 29.4204C 9.9856 29.0258 9.84924 28.5923 9.84924 28.1437C 9.84924 28.0874 9.8512 28.0288 9.85583 27.97L 9.85706 27.964L 9.85706 27.9573C 9.88391 27.2301 10.2324 26.5704 10.7594 26.082C 11.2861 25.5918 11.9877 25.2859 12.6827 25.2666L 12.694 25.2651L 12.7052 25.2651C 12.7864 25.2563 12.8685 25.2515 12.9497 25.2515ZM 43.7678 29.9099C 44.6941 31.2039 45.2661 32.8109 45.2661 34.4109C 45.2661 34.86 45.2212 35.3075 45.1284 35.7482L 45.1274 35.7493L 45.1274 35.7527C 44.9011 36.933 44.3912 38.0199 43.6951 38.9921C 43.0018 39.9637 42.1254 40.8179 41.1791 41.5237L 41.1781 41.526C 38.2054 43.7546 34.5284 44.8453 30.8665 45.1508C 30.2554 45.1952 29.6367 45.2173 29.0217 45.2173C 25.3853 45.2173 21.7227 44.4319 18.5417 42.6404C 18.2926 42.4993 18.0491 42.3547 17.8065 42.203C 16.7115 41.5031 15.6704 40.6449 14.8219 39.6389C 13.9728 38.6354 13.317 37.4832 12.9817 36.192L 12.9797 36.1909C 12.8248 35.6157 12.7516 35.0247 12.7516 34.4336C 12.7516 32.8279 13.2985 31.2155 14.2324 29.9161L 14.2324 29.9142C 16.075 27.3129 18.9491 25.6337 21.9286 24.6796C 24.2219 23.9659 26.6169 23.6083 29.0122 23.6083C 30.7959 23.6083 32.5815 23.8075 34.3231 24.2075C 34.9058 24.3418 35.4834 24.4985 36.0554 24.6755L 36.0764 24.683C 39.0565 25.6259 41.921 27.317 43.7678 29.9099ZM 47.8748 26.908C 48.0676 27.2686 48.1555 27.6552 48.1564 28.0435C 48.1564 28.5034 48.0314 28.9695 47.8108 29.3846C 47.6414 29.7012 47.4149 29.986 47.1495 30.2191C 46.3251 28.4171 45.0493 26.8859 43.5951 25.6116C 44.0524 25.3796 44.5676 25.2628 45.0856 25.2628C 45.6584 25.2628 46.2295 25.4038 46.7174 25.6815C 47.2052 25.9573 47.6101 26.3619 47.868 26.8977L 47.87 26.9034L 47.8748 26.908Z"/>
</defs>
</svg>
