<svg width="64" height="64" viewBox="0 0 64 64" version="1.1" xmlns="http://www.w3.org/2000/svg" xmlns:xlink="http://www.w3.org/1999/xlink">
<title>right_arrow_hover</title>
<desc>Created using Figma</desc>
<g id="Canvas" transform="matrix(2 0 0 2 -16796 3080)">
<g id="right_arrow_hover">
<g id="Ellipse 5">
<mask id="mask0_outline_ins">
<use xlink:href="#path0_fill" fill="white" transform="matrix(-1 1.22465e-16 -1.22465e-16 -1 8430 -1508)"/>
</mask>
<g mask="url(#mask0_outline_ins)">
<use xlink:href="#path1_stroke_2x" transform="matrix(-1 1.22465e-16 -1.22465e-16 -1 8430 -1508)" fill="#F2542D"/>
</g>
</g>
<g id="Line 4 (Stroke)">
<use xlink:href="#path2_fill" transform="matrix(0.707107 -0.707107 0.707107 0.707107 8402.3 -1524.25)" fill="#F2542D"/>
</g>
</g>
</g>
<defs>
<path id="path0_fill" d="M 32 16C 32 24.8366 24.8366 32 16 32C 7.16344 32 0 24.8366 0 16C 0 7.16344 7.16344 0 16 0C 24.8366 0 32 7.16344 32 16Z"/>
<path id="path1_stroke_2x" d="M 31 16C 31 24.2843 24.2843 31 16 31L 16 33C 25.3888 33 33 25.3888 33 16L 31 16ZM 16 31C 7.71573 31 1 24.2843 1 16L -1 16C -1 25.3888 6.61116 33 16 33L 16 31ZM 1 16C 1 7.71573 7.71573 1 16 1L 16 -1C 6.61116 -1 -1 6.61116 -1 16L 1 16ZM 16 1C 24.2843 1 31 7.71573 31 16L 33 16C 33 6.61116 25.3888 -1 16 -1L 16 1Z"/>
<path id="path2_fill" fill-rule="evenodd" d="M 11.9547 0C 12.4215 0 12.8 0.378464 12.8 0.845323L 12.8 11.9547L 12.8 11.9547C 12.8 12.4215 12.4215 12.8 11.9547 12.8L 0.845323 12.8C 0.378464 12.8 0 12.4215 0 11.9547C 0 11.4878 0.378464 11.1094 0.845323 11.1094L 10.1094 11.1094C 10.6616 11.1094 11.1094 10.6616 11.1094 10.1094L 11.1094 0.845323C 11.1094 0.378464 11.4878 0 11.9547 0Z"/>
</defs>
</svg>
